<svg t="1746686900579" class="icon" viewBox="0 0 1024 1024" version="1.1" xmlns="http://www.w3.org/2000/svg" p-id="2403" width="200" height="200"><path d="M837.456896 946.192384 647.790592 946.192384c-14.997504 0-27.15648-12.158976-27.15648-27.15648L620.634112 647.810048 404.29056 647.810048l-0.90112 271.31904c-0.039936 14.956544-12.1856 27.063296-27.15648 27.063296l-189.679616 0c-14.99648 0-27.15648-12.158976-27.15648-27.15648L159.396864 463.486976c0-14.99648 12.16-27.155456 27.15648-27.155456s27.15648 12.158976 27.15648 27.155456l0 428.393472 135.487488 0 0.862208-271.225856c0.039936-14.969856 12.1856-27.075584 27.155456-27.075584l270.57664 0c14.997504 0 27.15648 12.158976 27.15648 27.155456l0 271.173632 135.327744 0L810.27584 463.486976c0-14.99648 12.158976-27.155456 27.15648-27.155456 14.99648 0 27.15648 12.158976 27.15648 27.155456l0 455.548928C864.586752 934.033408 852.4544 946.179072 837.456896 946.192384zM920.687616 559.141888c-7.399424 0.014336-14.47936-3.009536-19.598336-8.352768L513.05984 144.19456 122.88 550.762496c-10.382336 10.832896-27.580416 11.177984-38.4 0.795648-10.819584-10.38336-11.164672-27.580416-0.782336-38.4l0 0 409.76384-426.98752c5.117952-5.343232 12.198912-8.353792 19.598336-8.367104l0 0c7.3984 0.013312 14.466048 3.023872 19.584 8.367104L940.285952 513.171456c10.395648 10.807296 10.05056 28.004352-0.755712 38.4-5.064704 4.852736-11.800576 7.571456-18.829312 7.571456L920.687616 559.142912z" p-id="2404" fill="#bfbfbf"></path></svg>