<?xml version="1.0" encoding="UTF-8"?>
<svg xmlns="http://www.w3.org/2000/svg" viewBox="0 0 512 512">
  <circle cx="256" cy="256" r="240" fill="#1DB954"/>
  <!-- 音符图标 -->
  <path d="M368 176c0 5.3-4.4 9.6-9.6 9.6h-72.8v112c0 26.5-21.5 48-48 48s-48-21.5-48-48s21.5-48 48-48c5.6 0 11 1 16 2.7V163.2c0-5.3 4.3-9.6 9.6-9.6h95.2c5.2 0 9.6 4.3 9.6 9.6V176z" fill="#121212"/>
  <!-- 音波 -->
  <path d="M166 240c-6.6 0-12 5.4-12 12c0 45.1 17.7 86.8 46.7 117.7c4.7 5 12.7 5.3 17.7 0.6c5-4.7 5.3-12.7 0.6-17.7c-24.7-26.4-39-61.1-39-100.6c0-6.6-5.4-12-12-12h-2z" fill="#121212"/>
  <path d="M138 216c-6.6 0-12 5.4-12 12c0 59.2 23.3 113.3 61.2 153.1c4.7 5 12.7 5.2 17.7 0.4c5-4.7 5.2-12.7 0.4-17.7c-33.8-35.4-54.3-83.2-54.3-135.8c0-6.6-5.4-12-12-12h-1z" fill="#121212"/>
  <path d="M194 264c-6.6 0-12 5.4-12 12c0 29.9 11.7 57.3 30.8 77.6c4.9 5.2 13 5.4 18.2 0.6c5.2-4.9 5.4-13 0.6-18.2c-15.3-16.2-24.6-37.8-24.6-60c0-6.6-5.4-12-12-12h-1z" fill="#121212"/>
  <!-- 下载图标 -->
  <path d="M352 352v32c0 8.8-7.2 16-16 16H176c-8.8 0-16-7.2-16-16v-32c0-8.8 7.2-16 16-16h160c8.8 0 16 7.2 16 16zm-88-32l72-80h-48V160h-64v80h-48l72 80z" fill="#FFFFFF"/>
</svg> 